<mxfile host="app.diagrams.net" modified="2024-02-20T12:51:52.552Z" agent="Mozilla/5.0 (Windows NT 10.0; Win64; x64) AppleWebKit/537.36 (KHTML, like Gecko) Chrome/120.0.0.0 Safari/537.36" version="23.1.5" etag="c-tI66Ta0XOrR2fDiNv-" type="github">
  <diagram name="PÃ¡gina-1" id="BY3BG-32xg8l663MP7P5">
    <mxGraphModel>
      <root>
        <mxCell id="0" />
        <mxCell id="1" parent="0" />
      </root>
    </mxGraphModel>
  </diagram>
</mxfile>
